<?xml version="1.0" encoding="utf-8"?>
<!-- Generator: Adobe Illustrator 23.0.4, SVG Export Plug-In . SVG Version: 6.00 Build 0)  -->
<svg version="1.1" id="_x34_771386c-1c5b-4872-9ac2-486c3b56cfa9"
	 xmlns="http://www.w3.org/2000/svg" xmlns:xlink="http://www.w3.org/1999/xlink" x="0px" y="0px" viewBox="0 0 862.8 574"
	 style="enable-background:new 0 0 862.8 574;" xml:space="preserve">
<style type="text/css">
	.st0{fill:#4C2822;stroke:#6B5144;stroke-miterlimit:10;}
	.st1{fill:#F3B87D;}
	.st2{opacity:5.000000e-02;enable-background:new    ;}
	.st3{fill:#E0E0E0;}
	.st4{fill:#E1C674;}
	.st5{fill:#FFFFFF;}
	.st6{opacity:0.1;enable-background:new    ;}
	.st7{fill:#B2200D;}
	.st8{fill:#4C2822;}
</style>
<title>organizing projects1</title>
<path d="M325.2,480.8c32.5,0,85.6-9.7,110.8-26.3c-2.7-14.9-9-39.1-15-60.8c-7.6-27.6-55.5-46.7-84.1-46.7h-27.5
	c-28.7,0-76.7,19.2-84.2,46.9c-5.7,21.1-11.8,44.3-14.8,57.9C236.4,470,291,480.8,325.2,480.8z"/>
<circle class="st0" cx="324.7" cy="252.6" r="77.1"/>
<path class="st1" d="M303.9,306.2h40.3c3.3,0,6,2.7,6,6v41.2c0,13.7-11.1,24.8-24.8,24.8h-2.9c-13.7,0-24.8-11.1-24.8-24.8v-41.2
	C297.8,308.9,300.5,306.2,303.9,306.2L303.9,306.2z"/>
<path class="st2" d="M326.4,341.1c8.7,0,17.3-1.7,25.3-4.9c-0.9-13.2-11.8-23.4-25-23.5h-2.1c-13,0-23.8,9.9-25,22.9
	C308.1,339.2,317.2,341.1,326.4,341.1z"/>
<circle class="st1" cx="324.8" cy="266.3" r="68.2"/>
<g>
	<circle class="st0" cx="301.7" cy="177.1" r="14.8"/>
	<circle class="st0" cx="354.2" cy="177.1" r="14.8"/>
	<circle class="st0" cx="326.3" cy="152.5" r="29.5"/>
</g>
<rect y="543.2" class="st3" width="645.6" height="21.9"/>
<path class="st4" d="M217.3,388h210.9c14.8,0,26.8,12,26.8,26.8v101.5c0,14.8-12,26.8-26.8,26.8H217.3c-14.8,0-26.8-12-26.8-26.8
	V414.8C190.5,400,202.5,388,217.3,388z"/>
<circle class="st5" cx="322.8" cy="465.6" r="9"/>
<rect x="27.4" y="565" class="st3" width="590.9" height="9"/>
<rect x="27.4" y="565" class="st6" width="590.9" height="3"/>
<g>
	<ellipse class="st7" cx="324.3" cy="303.7" rx="16.3" ry="7.4"/>
	<path class="st7" d="M325.4,298.1c-0.2,3.3-5.7,5.2-8.5,5.6c-2.2,0.4-7.2,0.7-8.4-1.7c-1.4-2.9,2.8-9.9,8.5-10.2
		C321,291.6,325.6,295,325.4,298.1z"/>
	<path class="st7" d="M323.2,298.1c0.2,3.3,5.7,5.2,8.5,5.6c2.2,0.4,7.2,0.7,8.4-1.7c1.4-2.9-2.8-9.9-8.5-10.2
		C327.6,291.6,323,295,323.2,298.1z"/>
</g>
<path class="st0" d="M378.7,209.7v12.9c0,6.7-5.4,12.2-12,12.2h-84.6c-6.6,0-12-5.5-12-12.2v-12.9c0-6.7,5.4-12.2,12-12.2h84.6
	C373.3,197.5,378.7,203,378.7,209.7z"/>
<path class="st8" d="M327.8,289.5"/>
</svg>
