<?xml version="1.0" encoding="utf-8"?>
<!-- Generator: Adobe Illustrator 23.0.4, SVG Export Plug-In . SVG Version: 6.00 Build 0)  -->
<svg version="1.1" id="_x34_771386c-1c5b-4872-9ac2-486c3b56cfa9"
	 xmlns="http://www.w3.org/2000/svg" xmlns:xlink="http://www.w3.org/1999/xlink" x="0px" y="0px" viewBox="0 0 862.8 574"
	 style="enable-background:new 0 0 862.8 574;" xml:space="preserve">
<style type="text/css">
	.st0{fill:#4C2822;stroke:#6B5144;stroke-miterlimit:10;}
	.st1{fill:#F3B87D;}
	.st2{opacity:5.000000e-02;enable-background:new    ;}
	.st3{fill:#E0E0E0;}
	.st4{fill:#E1C674;}
	.st5{fill:#FFFFFF;}
	.st6{opacity:0.1;enable-background:new    ;}
	.st7{fill:#4C2822;}
	.st8{fill:#B2200D;}
</style>
<title>organizing projects1</title>
<path d="M325.2,480.8c32.5,0,85.6-9.7,110.8-26.3c-2.7-14.9-9-39.1-15-60.8c-7.6-27.6-55.5-46.7-84.1-46.7h-27.5
	c-28.7,0-76.7,19.2-84.2,46.9c-5.7,21.1-11.8,44.3-14.8,57.9C236.4,470,291,480.8,325.2,480.8z"/>
<circle class="st0" cx="324.7" cy="252.6" r="77.1"/>
<path class="st1" d="M303.9,306.2h40.3c3.3,0,6,2.7,6,6v41.2c0,13.7-11.1,24.8-24.8,24.8h-2.9c-13.7,0-24.8-11.1-24.8-24.8v-41.2
	C297.8,308.9,300.5,306.2,303.9,306.2L303.9,306.2z"/>
<path class="st2" d="M326.4,341.1c8.7,0,17.3-1.7,25.3-4.9c-0.9-13.2-11.8-23.4-25-23.5h-2.1c-13,0-23.8,9.9-25,22.9
	C308.1,339.2,317.2,341.1,326.4,341.1z"/>
<circle class="st1" cx="324.8" cy="266.3" r="68.2"/>
<g>
	<circle class="st0" cx="301.7" cy="177.1" r="14.8"/>
	<circle class="st0" cx="354.2" cy="177.1" r="14.8"/>
	<circle class="st0" cx="326.3" cy="152.5" r="29.5"/>
</g>
<path class="st0" d="M380.3,251.9c7.9-3.6,12.8-11.8,12.2-20.6c-1-11.3-11-19.8-22.4-18.7c9.2,1.6,16.2,9.2,17.1,18.5
	c1,11.4-7.4,21.4-18.7,22.4C372.4,254.1,376.6,253.5,380.3,251.9L380.3,251.9z"/>
<path class="st0" d="M270.6,255.1c3.7,1.7,7.9,2.2,11.9,1.6c-11.4-1-19.8-11-18.7-22.4c0.9-9.3,7.9-16.9,17.1-18.5
	c-11.4-1-21.4,7.5-22.4,18.7C257.8,243.2,262.7,251.5,270.6,255.1L270.6,255.1z"/>
<path class="st0" d="M272.9,266.6c6.1,3.1,13.1,4,19.8,2.6c-16.3,0.3-29.8-12.7-30-29c-0.2-14,9.5-26.3,23.2-29.4
	c-16.3,0.2-29.3,13.7-29,30C257,251.8,263.2,261.6,272.9,266.6L272.9,266.6z"/>
<rect y="543.2" class="st3" width="645.6" height="21.9"/>
<path class="st4" d="M217.3,388h210.9c14.8,0,26.8,12,26.8,26.8v101.5c0,14.8-12,26.8-26.8,26.8H217.3c-14.8,0-26.8-12-26.8-26.8
	V414.8C190.5,400,202.5,388,217.3,388z"/>
<circle class="st5" cx="322.8" cy="465.6" r="9"/>
<rect x="27.4" y="565" class="st3" width="590.9" height="9"/>
<rect x="27.4" y="565" class="st6" width="590.9" height="3"/>
<path class="st7" d="M367.5,227.7h-85.6c-6.6,0-12-5.4-12-12V205c0-6.6,5.4-12,12-12h85.6c6.6,0,12,5.4,12,12v10.7
	C379.5,222.3,374.1,227.7,367.5,227.7z"/>
<g>
	<ellipse class="st8" cx="324.3" cy="303.7" rx="16.3" ry="7.4"/>
	<path class="st8" d="M325.4,298.1c-0.2,3.3-5.7,5.2-8.5,5.6c-2.2,0.4-7.2,0.7-8.4-1.7c-1.4-2.9,2.8-9.9,8.5-10.2
		C321,291.6,325.6,295,325.4,298.1z"/>
	<path class="st8" d="M323.2,298.1c0.2,3.3,5.7,5.2,8.5,5.6c2.2,0.4,7.2,0.7,8.4-1.7c1.4-2.9-2.8-9.9-8.5-10.2
		C327.6,291.6,323,295,323.2,298.1z"/>
</g>
<path class="st0" d="M274.9,231.9c2.6,1.2,5.7,1.6,8.5,1.1c-8.1-0.7-14.1-7.9-13.4-16c0.6-6.6,5.6-12.1,12.2-13.2
	c-8.1-0.7-15.3,5.3-16,13.4C265.8,223.5,269.3,229.3,274.9,231.9L274.9,231.9z"/>
<path class="st7" d="M327.8,289.5"/>
<path class="st0" d="M379.7,266.3c9.7-5,15.9-14.8,16-25.8c0.3-16.3-12.7-29.8-29-30c13.7,3.1,23.4,15.3,23.2,29.4
	c-0.2,16.3-13.7,29.3-30,29C366.6,270.3,373.6,269.4,379.7,266.3L379.7,266.3z"/>
<path class="st0" d="M286.4,229.4c2.6,1.2,5.7,1.6,8.5,1.1c-8.1-0.7-14.1-7.9-13.4-16c0.6-6.6,5.6-12.1,12.2-13.2
	c-8.1-0.7-15.3,5.3-16,13.4C277.2,221,280.7,226.9,286.4,229.4L286.4,229.4z"/>
<path class="st0" d="M366.3,229.1c5.6-2.6,9.1-8.4,8.7-14.7c-0.7-8-7.9-14.1-16-13.4c6.6,1.2,11.6,6.6,12.2,13.2
	c0.7,8.1-5.2,15.2-13.4,16C360.7,230.7,363.7,230.3,366.3,229.1L366.3,229.1z"/>
<path class="st0" d="M374.6,230.5c5.6-2.6,9.1-8.4,8.7-14.7c-0.7-8-7.9-14.1-16-13.4c6.6,1.2,11.6,6.6,12.2,13.2
	c0.7,8.1-5.2,15.2-13.4,16C369,232.1,372,231.7,374.6,230.5L374.6,230.5z"/>
<path class="st0" d="M304.4,229.4c2.6,1.2,5.7,1.6,8.5,1.1c-8.1-0.7-14.1-7.9-13.4-16c0.6-6.6,5.6-12.1,12.2-13.2
	c-8.1-0.7-15.3,5.3-16,13.4C295.3,221,298.8,226.9,304.4,229.4L304.4,229.4z"/>
<path class="st0" d="M354,228.6c5.6-2.6,9.1-8.4,8.7-14.7c-0.7-8-7.9-14.1-16-13.4c6.6,1.2,11.6,6.6,12.2,13.2
	c0.7,8.1-5.2,15.2-13.4,16C348.3,230.2,351.3,229.8,354,228.6L354,228.6z"/>
<path class="st0" d="M315.8,229.3c2.6,1.2,5.7,1.6,8.5,1.1c-8.1-0.7-14.1-7.9-13.4-16c0.6-6.6,5.6-12.1,12.2-13.2
	c-8.1-0.7-15.3,5.3-16,13.4C306.7,220.9,310.2,226.7,315.8,229.3L315.8,229.3z"/>
<path class="st0" d="M342.2,228.6c5.6-2.6,9.1-8.4,8.7-14.7c-0.7-8-7.9-14.1-16-13.4c6.6,1.2,11.6,6.6,12.2,13.2
	c0.7,8.1-5.2,15.2-13.4,16C336.5,230.2,339.5,229.8,342.2,228.6L342.2,228.6z"/>
<path class="st0" d="M293.3,230.1c2.6,1.2,5.7,1.6,8.5,1.1c-8.1-0.7-14.1-7.9-13.4-16c0.6-6.6,5.6-12.1,12.2-13.2
	c-8.1-0.7-15.3,5.3-16,13.4C284.2,221.7,287.7,227.6,293.3,230.1L293.3,230.1z"/>
<path class="st0" d="M333.2,229.3c5.6-2.6,9.1-8.4,8.7-14.7c-0.7-8-7.9-14.1-16-13.4c6.6,1.2,11.6,6.6,12.2,13.2
	c0.7,8.1-5.2,15.2-13.4,16C327.5,230.9,330.5,230.5,333.2,229.3L333.2,229.3z"/>
<path class="st0" d="M325.2,231.4c2.6,1.2,5.7,1.6,8.5,1.1c-8.1-0.7-14.1-7.9-13.4-16c0.6-6.6,5.6-12.1,12.2-13.2
	c-8.1-0.7-15.3,5.3-16,13.4C316.1,223,319.6,228.9,325.2,231.4L325.2,231.4z"/>
</svg>
